Format : AVI
Format/Info : Audio Video Interleave
Format profile : OpenDML
File size : 696 MiB
Duration : 1h 41mn
Overall bit rate : 955 Kbps
Writing application : AVI-Mux GUI 1.17.8.3, Feb 16 201019:42:50

Video
ID : 0
Format : MPEG-4 Visual
Format profile : AdvancedSimple@L5
Format settings, BVOP : Yes
Format settings, QPel : No
Format settings, GMC : No warppoints
Format settings, Matrix : Default (H.263)
Codec ID : XVID
Codec ID/Hint : XviD
Duration : 1h 41mn
Bit rate : 502 Kbps
Width : 720 pixels
Height : 320 pixels
Display aspect ratio : 2.25:1
Frame rate : 23.976 fps
Resolution : 24 bits
Colorimetry : 4:2:0
Scan type : Progressive
Bits/(Pixel*Frame) : 0.091
Stream size : 366 MiB (53%)
Writing library : XviD 1.2.1 (UTC 2008-12-04)

Audio
ID : 1
Format : AC-3
Format/Info : Audio Coding 3
Codec ID : 2000
Duration : 1h 41mn
Bit rate mode : Constant
Bit rate : 448 Kbps
Channel(s) : 2 channels
Channel positions : L R
Sampling rate : 44.1 KHz
Stream size : 327 MiB (47%)
Alignment : Aligned on interleaves
Interleave, duration : 70 ms (1.67 video frames)
Interleave, preload duration : 209 ms

Starring
Renée Zellweger
Forest Whitaker
Madeline Zima
Nick Nolte

In Kansas City, a paralyzed former singer, Jane, argues with her stuttering friend Joey about his belief that he can talk to the invisible world. One day, as she‘s out for some physiotherapy treatment, he messes up her house while searching for a book about angels that he has lent her but that she has not read. Frightening the neighbors, he is taken by the police to a hospital, where an angry Jane briefly visits.

The following night, Joey escapes from his room and comes back to his friend‘s house in order to tidy it as she sleeps. While he cleans everything up, he finds a letter from her young son inviting her to his upcoming communion in Baton Rouge, Louisiana, where he lives with his adoptive family. Later on, as she has woken up, he asks her if he can spend the night on the couch.
 
http://www.imdb.com/title/tt1193507/

screens
 
http://img255.imageshack.us/img255/6931/lovesongxvidviceavisnap.jpg 
http://img88.imageshack.us/img88/6931/lovesongxvidviceavisnap.jpg 
http://img715.imageshack.us/img715/6931/lovesongxvidviceavisnap.jpg 
http://img691.imageshack.us/img691/6931/lovesongxvidviceavisnap.jpg